<svg width="21" height="21" viewBox="0 0 21 21" fill="none" xmlns="http://www.w3.org/2000/svg">
<circle cx="10.6018" cy="10.8031" r="10" transform="rotate(-0.524049 10.6018 10.8031)" fill="white"/>
<path d="M10.5204 15.9205C13.2773 15.8953 15.4995 13.6319 15.4743 10.875C15.4625 9.58431 14.9505 8.35446 14.0582 7.43617C14.0582 7.43617 14.1843 7.14541 14.3404 6.78671C14.4962 6.42802 14.265 6.17803 13.8237 6.22811L11.2391 6.52279C10.7977 6.57296 10.654 6.90309 10.9181 7.26017L12.4656 9.35157C12.73 9.70858 13.0524 9.74873 13.1861 9.44102L13.4282 8.88411C13.8316 9.46939 14.0604 10.1643 14.067 10.8879C14.0851 12.8691 12.4884 14.4951 10.5076 14.5132C8.5265 14.5313 6.90014 12.9346 6.88202 10.9536C6.87632 10.3296 7.03287 9.71367 7.33519 9.17272C7.52471 8.83337 7.40337 8.40475 7.06403 8.21526C6.72458 8.02558 6.29616 8.14708 6.10648 8.48662C5.68528 9.24058 5.46675 10.0981 5.47469 10.9664C5.49991 13.7233 7.76343 15.9458 10.5204 15.9205Z" fill="#404040"/>
</svg>
