<svg width="21" height="18" viewBox="0 0 21 18" fill="none" xmlns="http://www.w3.org/2000/svg">
<g clip-path="url(#clip0_5793_654)">
<path d="M20.5 0.215027H0.5V0.765027H20.5V0.215027Z" fill="#404040"/>
<path d="M19.9 4.065H1.1C0.77 4.065 0.5 4.335 0.5 4.665V7.345C0.5 7.675 0.77 7.945 1.1 7.945H19.9C20.23 7.945 20.5 7.675 20.5 7.345V4.665C20.5 4.335 20.23 4.065 19.9 4.065Z" fill="#404040"/>
<path d="M19.9 11.325H1.1C0.77 11.325 0.5 11.595 0.5 11.925V17.195C0.5 17.525 0.77 17.795 1.1 17.795H19.9C20.23 17.795 20.5 17.525 20.5 17.195V11.925C20.5 11.595 20.23 11.325 19.9 11.325Z" fill="#404040"/>
</g>
<defs>
<clipPath id="clip0_5793_654">
<rect width="20" height="17.57" fill="white" transform="translate(0.5 0.215027)"/>
</clipPath>
</defs>
</svg>
