<svg width="22" height="22" viewBox="0 0 22 22" fill="none" xmlns="http://www.w3.org/2000/svg">
<path fill-rule="evenodd" clip-rule="evenodd" d="M2.09467 2.09467C3.42914 0.760201 5.42603 0.25 8 0.25H14C16.574 0.25 18.5709 0.760201 19.9053 2.09467C21.2398 3.42914 21.75 5.42603 21.75 8V14C21.75 16.574 21.2398 18.5709 19.9053 19.9053C18.5709 21.2398 16.574 21.75 14 21.75H8C5.42603 21.75 3.42914 21.2398 2.09467 19.9053C0.760201 18.5709 0.25 16.574 0.25 14V8C0.25 5.42603 0.760201 3.42914 2.09467 2.09467ZM3.15533 3.15533C2.2398 4.07086 1.75 5.57397 1.75 8V14C1.75 16.426 2.2398 17.9291 3.15533 18.8447C4.07086 19.7602 5.57397 20.25 8 20.25H14C16.426 20.25 17.9291 19.7602 18.8447 18.8447C19.7602 17.9291 20.25 16.426 20.25 14V8C20.25 5.57397 19.7602 4.07086 18.8447 3.15533C17.9291 2.2398 16.426 1.75 14 1.75H8C5.57397 1.75 4.07086 2.2398 3.15533 3.15533Z" fill="#292D32"/>
<path fill-rule="evenodd" clip-rule="evenodd" d="M11.0601 7.75C11.4743 7.75 11.8101 8.08579 11.8101 8.5V13.5C11.8101 13.9142 11.4743 14.25 11.0601 14.25C10.6458 14.25 10.3101 13.9142 10.3101 13.5V8.5C10.3101 8.08579 10.6458 7.75 11.0601 7.75Z" fill="#292D32"/>
<path fill-rule="evenodd" clip-rule="evenodd" d="M7.75 11C7.75 10.5858 8.08579 10.25 8.5 10.25H13.5C13.9142 10.25 14.25 10.5858 14.25 11C14.25 11.4142 13.9142 11.75 13.5 11.75H8.5C8.08579 11.75 7.75 11.4142 7.75 11Z" fill="#292D32"/>
</svg>
