<svg width="21" height="20" viewBox="0 0 21 20" fill="none" xmlns="http://www.w3.org/2000/svg">
<path d="M4.75 -0.000108719C5.30228 -0.000108719 5.75 0.447607 5.75 0.999891V1.74989H15.75V0.999891C15.75 0.447607 16.1977 -0.000108719 16.75 -0.000108719H19.75C20.3023 -0.000108719 20.75 0.447607 20.75 0.999891V3.99989C20.75 4.55218 20.3023 4.99989 19.75 4.99989H19V14.9999H19.75C20.3023 14.9999 20.75 15.4476 20.75 15.9999V18.9999C20.75 19.5522 20.3023 19.9999 19.75 19.9999H16.75C16.1977 19.9999 15.75 19.5522 15.75 18.9999V18.2499H5.75V18.9999C5.75 19.5522 5.30228 19.9999 4.75 19.9999H1.75C1.19772 19.9999 0.75 19.5522 0.75 18.9999V15.9999C0.75 15.4476 1.19772 14.9999 1.75 14.9999H2.5V4.99989H1.75C1.19772 4.99989 0.75 4.55218 0.75 3.99989V0.999891C0.75 0.447607 1.19772 -0.000108719 1.75 -0.000108719H4.75ZM5.75 3.99989C5.75 4.55218 5.30228 4.99989 4.75 4.99989H4V14.9999H4.75C5.30228 14.9999 5.75 15.4476 5.75 15.9999V16.7499H15.75V15.9999C15.75 15.4476 16.1977 14.9999 16.75 14.9999H17.5V4.99989H16.75C16.1977 4.99989 15.75 4.55218 15.75 3.99989V3.24989H5.75V3.99989ZM10.75 5.24989C11.0499 5.24989 11.3212 5.42844 11.4395 5.70399L14.4395 12.704C14.6026 13.0846 14.4264 13.5261 14.0459 13.6893C13.6653 13.8525 13.2238 13.6763 13.0605 13.2958L12.3984 11.7499H9.10156L8.43945 13.2958C8.27622 13.6761 7.83558 13.8521 7.45508 13.6893C7.07436 13.5262 6.89738 13.0847 7.06055 12.704L10.0605 5.70399C10.1788 5.42843 10.4501 5.24991 10.75 5.24989ZM9.74414 10.2499H11.7559L10.75 7.90419L9.74414 10.2499Z" fill="#404040"/>
</svg>
