<svg width="25" height="25" viewBox="0 0 25 25" fill="none" xmlns="http://www.w3.org/2000/svg">
<circle cx="12.3555" cy="12.2548" r="10" transform="rotate(-13.45 12.3555 12.2548)" fill="white"/>
<path d="M13.421 17.2607C16.1023 16.6195 17.7619 13.9163 17.1206 11.2349C16.8204 9.97957 16.0464 8.8954 14.9712 8.2C14.9712 8.2 15.029 7.88839 15.101 7.50385C15.1726 7.11941 14.8913 6.92748 14.4724 7.075L12.0192 7.94036C11.6003 8.08799 11.534 8.44191 11.8713 8.73085L13.8475 10.4231C14.185 10.7119 14.5082 10.6789 14.5697 10.3491L14.6811 9.75216C15.2051 10.2324 15.5836 10.8585 15.7519 11.5623C16.2128 13.4892 15.0202 15.4312 13.0936 15.8919C11.1668 16.3527 9.22449 15.1603 8.7637 13.2335C8.61854 12.6266 8.63336 11.9913 8.80701 11.3964C8.91582 11.0233 8.70168 10.6327 8.32854 10.5239C7.95527 10.4149 7.56488 10.6292 7.45596 11.0026C7.21409 11.8316 7.19291 12.7163 7.3949 13.5609C8.03617 16.2423 10.7395 17.902 13.421 17.2607Z" fill="#404040"/>
</svg>
