<svg width="21" height="20" viewBox="0 0 21 20" fill="none" xmlns="http://www.w3.org/2000/svg">
<path d="M5.68909 16.3572C7.07678 17.7341 8.46108 17.7341 9.84202 16.3572L16.0778 10.1214C16.1763 10.023 16.2522 9.90447 16.3004 9.77391C16.3487 9.64335 16.368 9.50389 16.3571 9.36514C16.3437 9.1277 16.2445 8.90322 16.0778 8.73356L7.56783 0.225679C7.42202 0.0807998 7.2247 -0.000354163 7.01915 1.16192e-06C6.8136 0.000356487 6.61659 0.0821996 6.47128 0.227582C6.32596 0.372965 6.24421 0.570026 6.24395 0.775578C6.2437 0.98113 6.32496 1.1784 6.46991 1.32414L7.36664 2.22087L1.53641 8.05082C0.873659 8.71357 0.521899 9.38725 0.500847 10.0601C0.480327 10.7746 0.832886 11.4893 1.53641 12.2038L5.68909 16.3572Z" fill="#404040"/>
<path d="M13.4493 18.4465H1.26242C1.05892 18.4503 0.865027 18.5338 0.722448 18.679C0.579869 18.8243 0.499974 19.0197 0.499974 19.2232C0.499974 19.4267 0.579869 19.6221 0.722448 19.7674C0.865027 19.9126 1.05892 19.9961 1.26242 19.9999H13.4493C13.5525 20.0018 13.655 19.9831 13.7509 19.9449C13.8469 19.9068 13.9342 19.8498 14.0079 19.7775C14.0815 19.7052 14.14 19.619 14.18 19.5238C14.2199 19.4286 14.2405 19.3264 14.2405 19.2232C14.2405 19.12 14.2199 19.0178 14.18 18.9226C14.14 18.8274 14.0815 18.7411 14.0079 18.6688C13.9342 18.5965 13.8469 18.5396 13.7509 18.5015C13.655 18.4633 13.5525 18.4446 13.4493 18.4465Z" fill="#404040"/>
<path d="M18.4661 13.8775C18.3986 13.8092 18.3182 13.755 18.2297 13.718C18.1411 13.681 18.0461 13.662 17.9501 13.662C17.8541 13.662 17.759 13.681 17.6704 13.718C17.5819 13.755 17.5015 13.8092 17.434 13.8775C17.1142 14.2239 15.5153 16.0261 15.5153 17.3842C15.5119 17.7059 15.5724 18.0251 15.6932 18.3233C15.814 18.6216 15.9927 18.8929 16.219 19.1216C16.4454 19.3503 16.7148 19.5318 17.0117 19.6558C17.3087 19.7797 17.6272 19.8435 17.949 19.8435C18.2708 19.8435 18.5893 19.7797 18.8863 19.6558C19.1832 19.5318 19.4526 19.3503 19.679 19.1216C19.9053 18.8929 20.084 18.6216 20.2048 18.3233C20.3256 18.0251 20.386 17.7059 20.3827 17.3842C20.384 16.0261 18.7867 14.2252 18.4661 13.8775Z" fill="#404040"/>
</svg>
