<svg width="21" height="21" viewBox="0 0 21 21" fill="none" xmlns="http://www.w3.org/2000/svg">
<path d="M19.4508 14.2621C19.8814 14.2621 20.2305 13.913 20.2305 13.4824V8.41411C20.2305 6.69434 18.8314 5.2952 17.1116 5.2952H15.4742V3.6188C15.4742 1.89903 14.0751 0.499891 12.3553 0.499891H3.38844C1.66867 0.499891 0.269531 1.89903 0.269531 3.6188V12.5857C0.269531 14.3054 1.66867 15.7046 3.38844 15.7046H5.02586V17.381C5.02586 19.1008 6.425 20.4999 8.14477 20.4999H17.1116C18.8314 20.4999 20.2305 19.1008 20.2305 17.381C20.2305 16.9504 19.8814 16.6013 19.4508 16.6013C19.0202 16.6013 18.6711 16.9504 18.6711 17.381C18.6711 18.2409 17.9715 18.9404 17.1116 18.9404H8.14477C7.28488 18.9404 6.58531 18.2409 6.58531 17.381V8.41411C6.58531 7.55423 7.28488 6.85466 8.14477 6.85466H17.1116C17.9715 6.85466 18.6711 7.55423 18.6711 8.41411V13.4824C18.6711 13.913 19.0202 14.2621 19.4508 14.2621ZM1.82898 3.6188C1.82898 2.75891 2.52855 2.05934 3.38844 2.05934H4.49617L1.82898 4.72626V3.6188ZM5.02586 14.1451H3.51105L5.02586 12.6303V14.1451ZM5.02586 8.41411V10.4248L2.05582 13.3949C1.91191 13.1588 1.82895 12.8818 1.82895 12.5856V11.3609L5.03664 8.15313C5.02953 8.23923 5.02586 8.32626 5.02586 8.41411ZM1.82898 9.15548V6.93157L6.69613 2.06493C6.69797 2.06309 6.69981 2.06122 6.70164 2.05934H8.92512L1.82898 9.15548ZM10.1558 5.2952H8.14481C8.05692 5.2952 7.96992 5.29888 7.88387 5.30598L10.9379 2.252C10.9961 2.1938 11.0431 2.12868 11.0791 2.05934H12.3553C12.6514 2.05934 12.9285 2.14231 13.1646 2.28622L10.1666 5.28423C10.1629 5.28786 10.1593 5.29153 10.1558 5.2952ZM13.9148 5.2952H12.361L13.9148 3.74141V5.2952Z" fill="#404040"/>
</svg>
