<svg width="17" height="17" viewBox="0 0 17 17" fill="none" xmlns="http://www.w3.org/2000/svg">
<g opacity="0.7">
<path fill-rule="evenodd" clip-rule="evenodd" d="M15.9469 15.9468C15.3653 16.5285 14.4222 16.5285 13.8406 15.9468L1.05334 3.15942C0.471719 2.57779 0.47172 1.63479 1.05334 1.05316V1.05316C1.63498 0.471517 2.578 0.471517 3.15963 1.05316L15.9469 13.8406C16.5285 14.4222 16.5285 15.3652 15.9469 15.9468V15.9468Z" fill="#404040"/>
<path fill-rule="evenodd" clip-rule="evenodd" d="M1.05312 15.9468C1.63475 16.5285 2.57777 16.5285 3.1594 15.9468L15.9467 3.15942C16.5283 2.57779 16.5283 1.63479 15.9467 1.05316V1.05316C15.365 0.471517 14.422 0.471517 13.8404 1.05316L1.05312 13.8406C0.471494 14.4222 0.471494 15.3652 1.05312 15.9468V15.9468Z" fill="#404040"/>
</g>
</svg>
