<svg width="21" height="21" viewBox="0 0 21 21" fill="none" xmlns="http://www.w3.org/2000/svg">
<circle cx="10.2474" cy="10.6325" r="10" transform="rotate(-0.524049 10.2474 10.6325)" fill="white"/>
<path d="M8.92464 15.644C8.03527 15.6521 7.14591 15.662 6.25651 15.6678C5.66739 15.6721 5.29185 15.309 5.28595 14.7262C5.26788 12.9383 5.25152 11.1499 5.23688 9.36195C5.23209 8.77569 5.59749 8.40412 6.18488 8.39818C7.97275 8.38011 9.7612 8.36376 11.5491 8.34911C12.1194 8.34447 12.5001 8.7115 12.5058 9.27548C12.5246 11.0731 12.541 12.8706 12.5552 14.6682C12.5598 15.2345 12.1881 15.6107 11.6207 15.6182C10.7222 15.6298 9.82315 15.6358 8.92464 15.644Z" fill="#4A4A4A"/>
<path d="M13.4642 12.8748C13.4613 12.5659 13.4588 12.2856 13.4559 11.974C13.7471 11.9713 14.0348 11.9687 14.3367 11.9659C14.32 10.1392 14.3036 8.34333 14.287 6.52576C12.4894 6.54221 10.6872 6.55869 8.85368 6.57546C8.85625 6.85574 8.85888 7.14345 8.86165 7.446C8.55054 7.44884 8.27025 7.45141 7.96713 7.45418C7.96376 7.08484 7.9209 6.70616 7.96778 6.33922C8.0189 5.93628 8.40508 5.65244 8.82179 5.64805C10.649 5.62791 12.4763 5.61063 14.3036 5.59791C14.8157 5.59437 15.2011 5.97677 15.2069 6.49223C15.2276 8.31033 15.2442 10.1279 15.2568 11.9461C15.2605 12.4764 14.8809 12.8544 14.349 12.8661C14.0653 12.8727 13.7816 12.8719 13.4642 12.8748Z" fill="#4A4A4A"/>
</svg>
