<svg width="16" height="4" viewBox="0 0 16 4" fill="none" xmlns="http://www.w3.org/2000/svg">
<path d="M3.65789 1.57895C3.65789 2.45098 2.95098 3.15789 2.07895 3.15789C1.20692 3.15789 0.5 2.45098 0.5 1.57895C0.5 0.706919 1.20692 0 2.07895 0C2.95098 0 3.65789 0.706919 3.65789 1.57895Z" fill="#404040"/>
<path d="M9.57895 1.57895C9.57895 2.45098 8.87203 3.15789 8 3.15789C7.12797 3.15789 6.42105 2.45098 6.42105 1.57895C6.42105 0.706919 7.12797 0 8 0C8.87203 0 9.57895 0.706919 9.57895 1.57895Z" fill="#404040"/>
<path d="M15.5 1.57895C15.5 2.45098 14.7931 3.15789 13.9211 3.15789C13.049 3.15789 12.3421 2.45098 12.3421 1.57895C12.3421 0.706919 13.049 0 13.9211 0C14.7931 0 15.5 0.706919 15.5 1.57895Z" fill="#404040"/>
</svg>
