<svg width="25" height="25" viewBox="0 0 25 25" fill="none" xmlns="http://www.w3.org/2000/svg">
<circle cx="12.2523" cy="12.6721" r="10" transform="rotate(-13.45 12.2523 12.6721)" fill="white"/>
<path d="M12.0841 17.8526C11.2191 18.0595 10.3544 18.268 9.48888 18.4727C8.91564 18.6086 8.46839 18.3387 8.33227 17.772C7.91473 16.0334 7.49872 14.294 7.08452 12.5547C6.9487 11.9843 7.22173 11.5404 7.79291 11.4032C9.53143 10.9857 11.2709 10.5697 13.0102 10.1555C13.565 10.0234 14.0182 10.296 14.1499 10.8444C14.5703 12.5922 14.9884 14.3406 15.4043 16.0895C15.5355 16.6404 15.2574 17.0901 14.7061 17.2244C13.833 17.4367 12.958 17.6436 12.0841 17.8526Z" fill="#4A4A4A"/>
<path d="M15.8891 14.1381C15.8173 13.8377 15.7521 13.5651 15.6796 13.2619C15.9627 13.1942 16.2426 13.1273 16.5363 13.0571C16.1114 11.2804 15.6936 9.5337 15.2708 7.76591C13.5225 8.18404 11.7697 8.60323 9.98635 9.02972C10.0515 9.30233 10.1185 9.58216 10.1888 9.87642C9.88626 9.94879 9.61365 10.014 9.31883 10.0845C9.23292 9.72527 9.10644 9.36577 9.07006 8.99764C9.02975 8.59347 9.34265 8.23044 9.74782 8.13295C11.5243 7.70458 13.3013 7.27899 15.0795 6.85785C15.5778 6.73985 16.039 7.02634 16.16 7.52743C16.5868 9.29485 17.0096 11.0626 17.4286 12.8319C17.5508 13.348 17.2654 13.8013 16.7495 13.9317C16.4745 14.0016 16.1978 14.0642 15.8891 14.1381Z" fill="#4A4A4A"/>
</svg>
