<svg width="26" height="20" viewBox="0 0 26 20" fill="none" xmlns="http://www.w3.org/2000/svg">
<path d="M23.53 0H2.47C1.105 0 0 0.85 0 1.9V18.1C0 19.15 1.105 20 2.47 20H23.53C24.895 20 26 19.15 26 18.1V1.9C26 0.85 24.895 0 23.53 0ZM11.622 6.09C11.622 5.91 11.817 5.76 12.051 5.76H13.949C14.183 5.76 14.378 5.91 14.378 6.09V7.55C14.378 7.73 14.183 7.88 13.949 7.88H12.051C11.817 7.88 11.622 7.73 11.622 7.55V6.09ZM11.622 9.27C11.622 9.09 11.817 8.94 12.051 8.94H13.949C14.183 8.94 14.378 9.09 14.378 9.27V10.73C14.378 10.91 14.183 11.06 13.949 11.06H12.051C11.817 11.06 11.622 10.91 11.622 10.73V9.27ZM7.826 6.09C7.826 5.91 8.021 5.76 8.255 5.76H10.153C10.387 5.76 10.582 5.91 10.582 6.09V7.55C10.582 7.73 10.387 7.88 10.153 7.88H8.255C8.021 7.88 7.826 7.73 7.826 7.55V6.09ZM7.826 9.27C7.826 9.09 8.021 8.94 8.255 8.94H10.153C10.387 8.94 10.582 9.09 10.582 9.27V10.73C10.582 10.91 10.387 11.06 10.153 11.06H8.255C8.021 11.06 7.826 10.91 7.826 10.73V9.27ZM6.799 10.73C6.799 10.91 6.604 11.06 6.37 11.06H4.459C4.225 11.06 4.03 10.91 4.03 10.73V9.27C4.03 9.09 4.225 8.94 4.459 8.94H6.37C6.604 8.94 6.799 9.09 6.799 9.27V10.73ZM6.799 7.56C6.799 7.74 6.604 7.89 6.37 7.89H4.459C4.225 7.89 4.03 7.74 4.03 7.56V6.09C4.03 5.91 4.225 5.76 4.459 5.76H6.37C6.604 5.76 6.799 5.91 6.799 6.09V7.56ZM18.174 13.91C18.174 14.09 17.979 14.24 17.745 14.24H8.255C8.021 14.24 7.826 14.09 7.826 13.91V12.45C7.826 12.27 8.021 12.12 8.255 12.12H17.745C17.979 12.12 18.174 12.27 18.174 12.45V13.91ZM18.174 10.73C18.174 10.91 17.979 11.06 17.745 11.06H15.847C15.613 11.06 15.418 10.91 15.418 10.73V9.27C15.418 9.09 15.613 8.94 15.847 8.94H17.745C17.979 8.94 18.174 9.09 18.174 9.27V10.73ZM18.174 7.56C18.174 7.74 17.979 7.89 17.745 7.89H15.847C15.613 7.89 15.418 7.74 15.418 7.56V6.09C15.418 5.91 15.613 5.76 15.847 5.76H17.745C17.979 5.76 18.174 5.91 18.174 6.09V7.56ZM21.97 10.73C21.97 10.91 21.775 11.06 21.541 11.06H19.63C19.396 11.06 19.201 10.91 19.201 10.73V9.27C19.201 9.09 19.396 8.94 19.63 8.94H21.528C21.762 8.94 21.957 9.09 21.957 9.27V10.73H21.97ZM21.97 7.56C21.97 7.74 21.775 7.89 21.541 7.89H19.63C19.396 7.89 19.201 7.74 19.201 7.56V6.09C19.201 5.91 19.396 5.76 19.63 5.76H21.528C21.762 5.76 21.957 5.91 21.957 6.09V7.56H21.97Z" fill="#404040"/>
</svg>
