<svg width="22" height="22" viewBox="0 0 22 22" fill="none" xmlns="http://www.w3.org/2000/svg">
<path fill-rule="evenodd" clip-rule="evenodd" d="M3.22566 3.46253C4.8647 1.86735 7.41769 0.25 11 0.25C16.9762 0.25 21.75 5.06774 21.75 11C21.75 15.9894 18.3519 20.1807 13.741 21.3953C13.3405 21.5008 12.9302 21.2616 12.8247 20.861C12.7192 20.4605 12.9584 20.0502 13.359 19.9447C17.3281 18.8993 20.25 15.2906 20.25 11C20.25 5.89226 16.1438 1.75 11 1.75C7.91231 1.75 5.7153 3.13265 4.27184 4.53747C3.54857 5.24138 3.01998 5.94649 2.67324 6.4743C2.50024 6.73764 2.37357 6.95522 2.29149 7.10417C2.25048 7.17859 2.22069 7.23572 2.20188 7.27268C2.19248 7.29116 2.18584 7.30458 2.18192 7.31258L2.17833 7.31995C2.00146 7.6942 1.55451 7.85495 1.18005 7.67833C0.805421 7.50163 0.644966 7.05469 0.821668 6.68005L1.5 7C0.821668 6.68005 0.821668 6.68005 0.821668 6.68005L0.822369 6.67857L0.823335 6.67654L0.826063 6.67083L0.834722 6.653C0.84192 6.63829 0.851982 6.61802 0.864939 6.59255C0.890847 6.54162 0.928367 6.46985 0.977764 6.38021C1.0765 6.20103 1.22304 5.94986 1.41957 5.6507C1.81189 5.05351 2.40768 4.25862 3.22566 3.46253Z" fill="#404040"/>
<path fill-rule="evenodd" clip-rule="evenodd" d="M1 10.25C1.41421 10.25 1.75 10.5858 1.75 11C1.75 11.41 1.77668 11.8135 1.82832 12.2088C1.88196 12.6196 1.59249 12.996 1.18177 13.0497C0.771043 13.1033 0.394596 12.8138 0.34095 12.4031C0.280924 11.9435 0.25 11.4752 0.25 11C0.25 10.5858 0.585786 10.25 1 10.25ZM1.47201 14.1347C1.85458 13.9759 2.29343 14.1573 2.4522 14.5399C2.76402 15.2913 3.17228 15.9931 3.66171 16.6298C3.91414 16.9582 3.85255 17.4291 3.52415 17.6815C3.19574 17.934 2.72488 17.8724 2.47245 17.544C1.90411 16.8046 1.42952 15.9889 1.06677 15.1149C0.908 14.7323 1.08943 14.2934 1.47201 14.1347ZM4.31846 18.4759C4.5709 18.1474 5.04176 18.0859 5.37017 18.3383C6.0069 18.8277 6.70872 19.236 7.46009 19.5478C7.84267 19.7066 8.0241 20.1454 7.86532 20.528C7.70655 20.9106 7.2677 21.092 6.88513 20.9332C6.01105 20.5705 5.19541 20.0959 4.45603 19.5276C4.12762 19.2751 4.06603 18.8043 4.31846 18.4759ZM8.95034 20.8182C9.00399 20.4075 9.38043 20.118 9.79116 20.1717C10.1865 20.2233 10.59 20.25 11 20.25C11.4142 20.25 11.75 20.5858 11.75 21C11.75 21.4142 11.4142 21.75 11 21.75C10.5248 21.75 10.0565 21.7191 9.59689 21.659C9.18617 21.6054 8.8967 21.229 8.95034 20.8182Z" fill="#404040"/>
<path fill-rule="evenodd" clip-rule="evenodd" d="M11.0601 7.75C11.4743 7.75 11.8101 8.08579 11.8101 8.5V13.5C11.8101 13.9142 11.4743 14.25 11.0601 14.25C10.6458 14.25 10.3101 13.9142 10.3101 13.5V8.5C10.3101 8.08579 10.6458 7.75 11.0601 7.75Z" fill="#404040"/>
<path fill-rule="evenodd" clip-rule="evenodd" d="M7.75 11C7.75 10.5858 8.08579 10.25 8.5 10.25H13.5C13.9142 10.25 14.25 10.5858 14.25 11C14.25 11.4142 13.9142 11.75 13.5 11.75H8.5C8.08579 11.75 7.75 11.4142 7.75 11Z" fill="#404040"/>
</svg>
