<svg width="21" height="20" viewBox="0 0 21 20" fill="none" xmlns="http://www.w3.org/2000/svg">
<path d="M1.46 0H0.5V20H1.46V0Z" fill="#404040"/>
<path d="M19.9 13.6H3.93002C3.60002 13.6 3.33002 13.87 3.33002 14.2V16.88C3.33002 17.21 3.60002 17.48 3.93002 17.48H19.9C20.23 17.48 20.5 17.21 20.5 16.88V14.2C20.5 13.87 20.23 13.6 19.9 13.6Z" fill="#404040"/>
<path d="M3.93002 12.05H9.90002C10.23 12.05 10.5 11.78 10.5 11.45V8.76998C10.5 8.43998 10.23 8.16998 9.90002 8.16998H3.93002C3.60002 8.16998 3.33002 8.43998 3.33002 8.76998V11.45C3.33002 11.78 3.60002 12.05 3.93002 12.05Z" fill="#404040"/>
<path d="M3.93002 6.60999H15.57C15.9 6.60999 16.17 6.33999 16.17 6.00999V3.33999C16.17 3.00999 15.9 2.73999 15.57 2.73999H3.93002C3.60002 2.73999 3.33002 3.00999 3.33002 3.33999V6.01999C3.33002 6.34999 3.60002 6.60999 3.93002 6.60999Z" fill="#404040"/>
</svg>
