<svg width="21" height="20" viewBox="0 0 21 20" fill="none" xmlns="http://www.w3.org/2000/svg">
<path d="M18.96 0H2.04C1.19 0 0.5 0.69 0.5 1.54V18.46C0.5 19.31 1.19 20 2.04 20H18.96C19.81 20 20.5 19.31 20.5 18.46V1.54C20.5 0.69 19.81 0 18.96 0ZM12.14 3.37C12.43 3.66 12.43 4.12 12.14 4.4L4.91 11.63C4.62 11.92 4.16 11.92 3.88 11.63C3.59 11.34 3.59 10.88 3.88 10.6L11.11 3.37C11.39 3.09 11.85 3.09 12.14 3.37ZM3.39 6.16L6.66 2.89C6.95 2.6 7.41 2.6 7.69 2.89C7.98 3.18 7.98 3.64 7.69 3.92L4.43 7.19C4.14 7.48 3.68 7.48 3.4 7.19C3.11 6.9 3.11 6.44 3.39 6.16ZM3.81 16.63C3.52 16.34 3.52 15.88 3.81 15.6L16.1 3.31C16.39 3.02 16.85 3.02 17.13 3.31C17.42 3.6 17.42 4.06 17.13 4.34L4.84 16.63C4.56 16.91 4.1 16.91 3.81 16.63ZM8.8 16.56C8.51 16.27 8.51 15.81 8.8 15.53L16.03 8.3C16.32 8.01 16.78 8.01 17.06 8.3C17.35 8.59 17.35 9.05 17.06 9.33L9.83 16.56C9.55 16.85 9.09 16.85 8.8 16.56ZM17.55 13.78L14.28 17.05C13.99 17.34 13.53 17.34 13.25 17.05C12.96 16.76 12.96 16.3 13.25 16.02L16.52 12.75C16.81 12.46 17.27 12.46 17.55 12.75C17.83 13.03 17.83 13.49 17.55 13.78Z" fill="#404040"/>
</svg>
