<svg width="21" height="21" viewBox="0 0 21 21" fill="none" xmlns="http://www.w3.org/2000/svg">
<circle cx="10.2573" cy="10.8092" r="10" transform="rotate(-0.524049 10.2573 10.8092)" fill="white"/>
<path fill-rule="evenodd" clip-rule="evenodd" d="M5.50735 6.1454C5.89429 5.75132 6.52743 5.74553 6.92151 6.13246L10.2444 9.3951L13.507 6.07223C13.894 5.67815 14.5271 5.67236 14.9212 6.05929C15.3153 6.44623 15.321 7.07937 14.9341 7.47345L11.6715 10.7963L14.9943 14.059C15.3884 14.4459 15.3942 15.079 15.0073 15.4731C14.6203 15.8672 13.9872 15.873 13.5931 15.486L10.2702 12.2234L7.00761 15.5463C6.62067 15.9404 5.98754 15.9462 5.59346 15.5592C5.19938 15.1723 5.19359 14.5391 5.58052 14.1451L8.84316 10.8222L5.52029 7.55955C5.12621 7.17261 5.12042 6.53948 5.50735 6.1454Z" fill="#4A4A4A"/>
</svg>
