<svg width="25" height="25" viewBox="0 0 25 25" fill="none" xmlns="http://www.w3.org/2000/svg">
<circle cx="12.1638" cy="12.2865" r="10" transform="rotate(-13.45 12.1638 12.2865)" fill="white"/>
<path fill-rule="evenodd" clip-rule="evenodd" d="M6.49093 8.80334C6.7799 8.33269 7.3957 8.18542 7.86635 8.4744L11.8348 10.9111L14.2715 6.94257C14.5605 6.47192 15.1763 6.32465 15.6469 6.61363C16.1176 6.90261 16.2649 7.51841 15.9759 7.98905L13.5392 11.9575L17.5077 14.3942C17.9784 14.6832 18.1256 15.299 17.8367 15.7696C17.5477 16.2403 16.9319 16.3876 16.4612 16.0986L12.4927 13.6619L10.0561 17.6304C9.76709 18.1011 9.15129 18.2483 8.68064 17.9594C8.20999 17.6704 8.06272 17.0546 8.3517 16.5839L10.7884 12.6154L6.81987 10.1788C6.34922 9.88979 6.20195 9.27399 6.49093 8.80334Z" fill="#4A4A4A"/>
</svg>
