<svg width="20" height="17" viewBox="0 0 20 17" fill="none" xmlns="http://www.w3.org/2000/svg">
<path d="M5.7062 13.7661C5.7062 10.123 5.7062 6.51187 5.7062 2.89008C4.57372 2.89008 3.44124 2.89008 2.28739 2.89008C2.28739 3.22662 2.28739 3.55781 2.28739 3.88901C2.28739 4.39649 2.0844 4.59948 1.57158 4.59948C1.25107 4.59948 0.930557 4.60482 0.610044 4.59948C0.236112 4.5888 0.00106942 4.35375 -0.00427246 3.97982C-0.00427246 2.85803 -0.00427246 1.74158 -0.00427246 0.61978C-0.00427246 0.245849 0.23077 0.0108058 0.604702 0.00012207C0.79701 0.00012207 0.983975 0.00012207 1.17094 0.00012207C5.30021 0.00012207 9.43483 0.00012207 13.5641 0.00546395C13.7297 0.00546395 13.9274 0.0375152 14.0502 0.133669C14.1677 0.224481 14.2746 0.416789 14.2746 0.566361C14.2906 1.72021 14.2906 2.87405 14.2799 4.02256C14.2799 4.3591 14.0395 4.58346 13.7083 4.5888C13.3344 4.59414 12.9605 4.59414 12.5865 4.5888C12.234 4.58346 11.9989 4.34841 11.9936 3.99585C11.9882 3.6326 11.9936 3.26401 11.9936 2.88474C10.8558 2.88474 9.72329 2.88474 8.59081 2.88474C8.59081 6.50653 8.59081 10.123 8.59081 13.7608C8.71902 13.7608 8.83654 13.7608 8.95406 13.7608C9.28526 13.7608 9.6218 13.7555 9.95299 13.7608C10.359 13.7715 10.5833 13.9958 10.5887 14.4018C10.594 14.7437 10.594 15.0802 10.5887 15.4221C10.5833 15.8228 10.3536 16.0632 9.95299 16.0632C8.08333 16.0685 6.20833 16.0685 4.33868 16.0632C3.93269 16.0632 3.71368 15.8335 3.70833 15.4275C3.70299 15.0856 3.70299 14.7491 3.70833 14.4072C3.71368 13.9905 3.92735 13.7715 4.3547 13.7661C4.72863 13.7608 5.10257 13.7661 5.4765 13.7661C5.5406 13.7661 5.61539 13.7661 5.7062 13.7661Z" fill="#404040"/>
<path d="M14.4241 14.5835C14.4241 12.2223 14.4241 9.8826 14.4241 7.53752C13.6977 7.53752 12.9712 7.53752 12.2286 7.53752C12.2286 7.75653 12.2286 7.96487 12.2286 8.17854C12.2233 8.50974 12.0951 8.63794 11.7692 8.63794C11.5556 8.63794 11.3419 8.64328 11.1282 8.63794C10.8932 8.6326 10.7489 8.49905 10.7489 8.26401C10.7436 7.52683 10.7436 6.78431 10.7489 6.04713C10.7489 5.8014 10.9038 5.67854 11.1709 5.67854C12.4583 5.67854 13.7457 5.67854 15.0278 5.67854C16.5128 5.67854 17.9979 5.67854 19.4882 5.67854C19.8835 5.67854 19.9957 5.79072 19.9957 6.19136C19.9957 6.84841 19.9957 7.51081 19.9957 8.16786C19.9957 8.51508 19.8729 8.63794 19.5256 8.63794C19.344 8.63794 19.1677 8.63794 18.9861 8.63794C18.6282 8.63794 18.5107 8.51508 18.5107 8.15183C18.5107 7.96487 18.5107 7.7779 18.5107 7.59093C18.5107 7.58025 18.5053 7.56422 18.4947 7.53752C17.7788 7.53752 17.0524 7.53752 16.3152 7.53752C16.3152 9.87726 16.3152 12.217 16.3152 14.5835C16.593 14.5835 16.8654 14.5835 17.1378 14.5835C17.469 14.5835 17.5919 14.7117 17.5972 15.0429C17.5972 15.2405 17.5972 15.4435 17.5972 15.6411C17.5919 15.9082 17.4583 16.0632 17.1966 16.0632C15.9786 16.0685 14.7553 16.0685 13.5374 16.0632C13.2917 16.0632 13.1528 15.9189 13.1474 15.6732C13.1421 15.4328 13.1421 15.1924 13.1474 14.952C13.1528 14.717 13.2917 14.5835 13.5267 14.5781C13.8152 14.5781 14.109 14.5835 14.4241 14.5835Z" fill="#404040"/>
</svg>
