<svg width="21" height="20" viewBox="0 0 21 20" fill="none" xmlns="http://www.w3.org/2000/svg">
<path d="M5.18005 11.35C5.18005 12.64 5.18005 13.93 5.18005 15.22C5.18005 15.25 5.18005 15.27 5.18005 15.31C5.21005 15.31 5.23005 15.31 5.25005 15.31C6.55005 15.31 7.85005 15.31 9.15005 15.31C9.19005 15.31 9.24005 15.28 9.28005 15.25C12.0601 12.47 14.8401 9.69005 17.6201 6.91005C17.6401 6.89005 17.6801 6.87005 17.6901 6.86005C16.3301 5.50005 14.9801 4.15005 13.6301 2.80005C13.6201 2.82005 13.6001 2.84005 13.5801 2.86005C10.8001 5.64005 8.02005 8.42005 5.23005 11.21C5.20005 11.26 5.18005 11.3 5.18005 11.35Z" fill="#404040"/>
<path d="M18.62 5.92999C19.17 5.36999 19.72 4.80999 20.26 4.23999C20.59 3.88999 20.57 3.37999 20.23 3.03999C19.3 2.11999 18.37 1.19999 17.44 0.289988C17.05 -0.0900123 16.55 -0.0900122 16.17 0.299988C15.65 0.819988 15.13 1.32999 14.61 1.84999C14.59 1.86999 14.56 1.87999 14.55 1.88999C15.92 3.25999 17.27 4.60999 18.62 5.95999C18.61 5.93999 18.62 5.93999 18.62 5.92999Z" fill="#404040"/>
<path d="M18.68 9.06V17.69C18.68 17.96 18.46 18.18 18.19 18.18H2.81C2.54 18.18 2.32 17.96 2.32 17.69V2.31C2.32 2.04 2.54 1.82 2.81 1.82H11.44V0H2.81C1.54 0 0.5 1.04 0.5 2.31V17.7C0.5 18.96 1.54 20 2.81 20H18.19C19.46 20 20.5 18.96 20.5 17.69V9.06H18.68Z" fill="#404040"/>
</svg>
