<svg width="20" height="20" viewBox="0 0 20 20" fill="none" xmlns="http://www.w3.org/2000/svg">
<path d="M12.8393 0C9.29871 0 6.36931 2.58166 5.80029 5.96417C6.39039 5.80611 7.00156 5.71128 7.64434 5.71128C11.5853 5.71128 14.7887 8.91465 14.7887 12.8556C14.7887 13.2561 14.7466 13.6459 14.6833 14.0358C17.7392 13.2244 19.9836 10.4426 19.9836 7.14436C19.9836 3.20337 16.7908 0 12.8393 0Z" fill="#404040"/>
<path d="M12.8393 2.10748C15.6212 2.10748 17.8762 4.36249 17.8762 7.14436C17.8762 9.92624 15.6212 12.1812 12.8393 12.1812C10.0574 12.1812 7.80243 9.92624 7.80243 7.14436C7.80243 4.36249 10.068 2.10748 12.8393 2.10748ZM12.8393 0C8.89832 0 5.69495 3.20337 5.69495 7.14436C5.69495 11.0854 8.89832 14.2887 12.8393 14.2887C16.7803 14.2887 19.9837 11.0854 19.9837 7.14436C19.9837 3.20337 16.7908 0 12.8393 0Z" fill="#404040"/>
<g opacity="0.75">
<path opacity="0.75" d="M7.64436 7.81891C10.4262 7.81891 12.6812 10.0739 12.6812 12.8558C12.6812 15.6377 10.4262 17.8927 7.64436 17.8927C4.86249 17.8927 2.60748 15.6377 2.60748 12.8558C2.60748 10.0739 4.86249 7.81891 7.64436 7.81891ZM7.64436 5.71143C3.70337 5.71143 0.5 8.9148 0.5 12.8558C0.5 16.7968 3.70337 20.0001 7.64436 20.0001C11.5854 20.0001 14.7887 16.7968 14.7887 12.8558C14.7887 8.9148 11.5959 5.71143 7.64436 5.71143Z" fill="#404040"/>
</g>
</svg>
