<svg width="21" height="14" viewBox="0 0 21 14" fill="none" xmlns="http://www.w3.org/2000/svg">
<path d="M8.54304 10.1003H4.64259L3.67274 13.7266H0.5L4.64259 0.254028H8.68412L12.1862 11.3734L14.4746 4.03698H17.414L20.5 13.73H18.0756L17.3113 11.0925H14.4746L13.7692 13.73L9.59374 13.7266L8.54304 10.1003ZM5.0873 7.90921H8.09833L7.24977 5.04641L6.89097 3.74514L6.56249 2.44429H6.52207L6.21633 3.75693L5.89544 5.0801L5.0873 7.90921ZM14.798 9.49938H16.9878L16.3705 7.41734L16.1098 6.47108L15.871 5.52523H15.8415L15.6192 6.47992L15.3859 7.44219L14.798 9.49938ZM13.319 0.254028H18.3725L15.8457 2.78077L13.319 0.254028Z" fill="#404040"/>
</svg>
