<svg width="80" height="75" viewBox="0 0 80 75" fill="none" xmlns="http://www.w3.org/2000/svg">
<g clip-path="url(#clip0_5702_13646)">
<path opacity="0.4" d="M75.532 45.0037L50.7865 30.3863C44.8291 26.868 35.1709 26.868 29.2135 30.3863L4.46804 45.0037C-1.48935 48.5221 -1.48935 54.2268 4.46804 57.7452L29.2135 72.3626C35.1709 75.8809 44.8291 75.8809 50.7865 72.3626L75.532 57.7452C81.4893 54.2268 81.4893 48.5221 75.532 45.0037Z" fill="white"/>
<path d="M75.532 17.255L50.7865 2.64024C44.8291 -0.878126 35.1709 -0.878126 29.2135 2.64024L4.46804 17.255C-1.48935 20.7733 -1.48935 26.4781 4.46804 29.9964L29.2135 44.6138L35.7921 48.6416C42.5061 52.9692 48.368 54.8054 55.9129 52.9241C55.8253 52.9348 50.5714 53.5238 48.8379 50.2044C47.0883 46.8559 50.7865 44.6165 50.7865 44.6165L75.532 29.9991C81.4893 26.4781 81.4893 20.7733 75.532 17.255Z" fill="white"/>
<g opacity="0.8">
<path opacity="0.75" d="M75.532 45.0037L62.8287 37.5L50.7865 44.6137C50.7865 44.6137 47.091 46.8531 48.8379 50.2017C50.5715 53.5237 55.8253 52.932 55.913 52.9214C55.5864 52.9983 59.2925 51.9714 61.0792 50.9154L67.7932 46.9513C70.1958 45.752 75.1948 43.9822 78.6939 47.7261C77.9532 46.739 76.9019 45.813 75.532 45.0037Z" fill="white"/>
</g>
</g>
<defs>
<clipPath id="clip0_5702_13646">
<rect width="80" height="75" fill="white"/>
</clipPath>
</defs>
</svg>
