<svg width="12" height="13" viewBox="0 0 12 13" fill="none" xmlns="http://www.w3.org/2000/svg">
<path fill-rule="evenodd" clip-rule="evenodd" d="M0.490926 2.80337C0.779904 2.33273 1.3957 2.18545 1.86635 2.47443L5.83485 4.9111L8.27151 0.9426C8.56049 0.471951 9.17629 0.32468 9.64694 0.613658C10.1176 0.902637 10.2649 1.51844 9.97588 1.98908L7.53922 5.95758L11.5077 8.39424C11.9784 8.68322 12.1256 9.29902 11.8367 9.76967C11.5477 10.2403 10.9319 10.3876 10.4612 10.0986L6.49273 7.66195L4.05607 11.6304C3.76709 12.1011 3.15129 12.2484 2.68064 11.9594C2.20999 11.6704 2.06272 11.0546 2.3517 10.584L4.78836 6.61546L0.819867 4.1788C0.349219 3.88982 0.201947 3.27402 0.490926 2.80337Z" fill="#4A4A4A"/>
</svg>
