<svg width="25" height="25" viewBox="0 0 25 25" fill="none" xmlns="http://www.w3.org/2000/svg">
<circle cx="12.4439" cy="12.6404" r="10" transform="rotate(-13.45 12.4439 12.6404)" fill="white"/>
<path d="M14.0447 8.42836C13.4637 8.13005 12.9063 7.84332 12.3027 7.5332C13.6067 7.22135 14.8667 6.92003 16.1438 6.61458C16.4458 7.87739 16.7488 9.14403 17.0661 10.471C16.5213 10.0719 16.0139 9.70035 15.4844 9.31279C15.0324 10.0763 14.5885 10.8251 14.154 11.5581C13.6475 11.2476 13.1547 10.9454 12.6442 10.6327C13.0987 9.91776 13.5608 9.18985 14.0447 8.42836Z" fill="#4A4A4A"/>
<path d="M7.81697 14.7898C8.37152 15.1956 8.87643 15.5653 9.401 15.9494C9.85449 15.1836 10.298 14.4353 10.7293 13.7077C11.2387 14.02 11.732 14.3221 12.239 14.633C11.7854 15.3473 11.3225 16.0759 10.8408 16.8339C11.4148 17.1288 11.9769 17.4179 12.5861 17.7307C11.2779 18.0436 10.017 18.3452 8.74028 18.6505C8.43713 17.3829 8.13432 16.1167 7.81697 14.7898Z" fill="#4A4A4A"/>
</svg>
