<svg width="21" height="21" viewBox="0 0 21 21" fill="none" xmlns="http://www.w3.org/2000/svg">
<circle cx="10.9535" cy="10.7488" r="10" transform="rotate(89.7257 10.9535 10.7488)" fill="white"/>
<path d="M14.6899 13.2675C15.1128 12.7698 15.519 12.2924 15.9585 11.7754C15.9649 13.1161 15.9712 14.4116 15.9774 15.7248C14.679 15.731 13.3767 15.7372 12.0123 15.7438C12.5251 15.3042 13.0025 14.8949 13.5006 14.4677C12.8602 13.8536 12.2322 13.2507 11.6176 12.6605C12.0354 12.2382 12.442 11.8272 12.8627 11.4014C13.4553 12.0069 14.0587 12.6227 14.6899 13.2675Z" fill="#4A4A4A"/>
<path d="M9.91546 5.75367C9.3939 6.20112 8.9189 6.60848 8.42528 7.03168C9.0676 7.6478 9.69509 8.25021 10.3053 8.83596C9.885 9.26078 9.47844 9.67224 9.06012 10.0951C8.46806 9.49053 7.86412 8.87373 7.23595 8.23195C6.81796 8.7237 6.40829 9.20507 5.96485 9.72696C5.95841 8.38179 5.95221 7.08536 5.94592 5.77268C7.24925 5.76644 8.5511 5.76021 9.91546 5.75367Z" fill="#4A4A4A"/>
</svg>
