<svg width="25" height="21" viewBox="0 0 25 21" fill="none" xmlns="http://www.w3.org/2000/svg">
<path fill-rule="evenodd" clip-rule="evenodd" d="M0.297113 0.738465C0.406379 0.444794 0.686696 0.25 1.00004 0.25H24C24.269 0.25 24.5173 0.39401 24.6509 0.627429C24.7846 0.860848 24.7829 1.14794 24.6467 1.37984L13.487 20.3798C13.3317 20.6442 13.0312 20.7874 12.7281 20.7416C12.425 20.6957 12.1803 20.47 12.1101 20.1715L9.58002 9.40159L0.509798 1.5676C0.272663 1.36278 0.187847 1.03214 0.297113 0.738465ZM11.1116 9.36226L13.1421 18.0053L21.9051 3.08578L11.1116 9.36226ZM21.2183 1.75H3.01579L10.3399 8.07585L21.2183 1.75Z" fill="#292D32"/>
</svg>
