<svg width="19" height="14" viewBox="0 0 19 14" fill="none" xmlns="http://www.w3.org/2000/svg">
<path fill-rule="evenodd" clip-rule="evenodd" d="M11.0807 1.4907C11.1876 1.40244 11.3293 1.36854 11.4646 1.39886L16.4097 2.50702C16.577 2.5445 16.7083 2.67391 16.7481 2.84058C16.788 3.00725 16.7295 3.18208 16.5974 3.2912L12.689 6.51827C12.5821 6.60659 12.4403 6.6405 12.3049 6.61011L7.36086 5.50014C7.19367 5.4626 7.06244 5.33316 7.0226 5.1665C6.98277 4.99984 7.04129 4.82505 7.17343 4.71597L11.0807 1.4907ZM11.4827 2.32297L8.45174 4.82492L12.287 5.68596L15.3188 3.18261L11.4827 2.32297Z" fill="#404040"/>
<path fill-rule="evenodd" clip-rule="evenodd" d="M17.1764 4.8277C17.3342 5.01891 17.3071 5.30184 17.1159 5.45964L13.2072 8.68525C13.1003 8.7735 12.9585 8.80738 12.8233 8.77704L7.87958 7.66853C7.63767 7.61429 7.48554 7.37421 7.53978 7.1323C7.59402 6.89039 7.8341 6.73826 8.07601 6.7925L12.8053 7.85293L16.5445 4.76719C16.7357 4.6094 17.0186 4.63649 17.1764 4.8277Z" fill="#404040"/>
<path fill-rule="evenodd" clip-rule="evenodd" d="M17.7058 7.04115C17.8635 7.23236 17.8365 7.51529 17.6452 7.67309L17.2544 7.99565C17.0632 8.15345 16.7802 8.12636 16.6224 7.93515C16.4646 7.74393 16.4917 7.461 16.6829 7.30321L17.0738 6.98065C17.265 6.82285 17.548 6.84994 17.7058 7.04115ZM8.06914 9.34575C8.12338 9.10384 8.36346 8.95171 8.60537 9.00595L9.09974 9.1168C9.34165 9.17105 9.49378 9.41112 9.43954 9.65303C9.38529 9.89494 9.14522 10.0471 8.90331 9.99283L8.40894 9.88198C8.16703 9.82774 8.0149 9.58766 8.06914 9.34575ZM16.1423 8.3314C16.3001 8.52261 16.273 8.80554 16.0818 8.96333L15.3 9.60846C15.1088 9.76625 14.8259 9.73916 14.6681 9.54795C14.5103 9.35674 14.5374 9.07381 14.7286 8.91601L15.5103 8.27089C15.7016 8.11309 15.9845 8.14018 16.1423 8.3314ZM10.0466 9.78916C10.1009 9.54725 10.3409 9.39512 10.5828 9.44936L11.5716 9.67106C11.8135 9.7253 11.9656 9.96538 11.9114 10.2073C11.8571 10.4492 11.6171 10.6013 11.3752 10.5471L10.3864 10.3254C10.1445 10.2711 9.99237 10.0311 10.0466 9.78916ZM14.1879 9.9442C14.3457 10.1354 14.3186 10.4183 14.1274 10.5761L13.7366 10.8987C13.6296 10.9869 13.4879 11.0208 13.3526 10.9905L12.8583 10.8796C12.6163 10.8254 12.4642 10.5853 12.5185 10.3434C12.5727 10.1015 12.8128 9.94937 13.0547 10.0036L13.3346 10.0664L13.556 9.8837C13.7472 9.7259 14.0301 9.75299 14.1879 9.9442Z" fill="#404040"/>
<path d="M11.3664 1.83688L7.4592 5.06215L12.4032 6.17212L16.3116 2.94505L11.3664 1.83688Z" fill="#404040"/>
<path d="M4.6262 10.9197L3.51335 6.26644L4.78571 6.88378C5.15118 7.0611 5.5197 6.57587 5.15424 6.39855L3.2194 5.4616C3.06873 5.38903 2.86508 5.43774 2.76354 5.57062L1.46261 7.28142C1.41149 7.3469 1.39263 7.42471 1.41063 7.49677C1.4677 7.73522 1.85013 7.76748 2.01083 7.54741L2.86572 6.41913L3.98234 11.0882C4.09241 11.4501 4.73306 11.2679 4.6262 10.9197Z" fill="#404040"/>
</svg>
