<svg width="19" height="15" viewBox="0 0 19 15" fill="none" xmlns="http://www.w3.org/2000/svg">
<path fill-rule="evenodd" clip-rule="evenodd" d="M5.50462 3.60615C5.61154 3.51789 5.75325 3.48399 5.88854 3.51431C7.81974 3.94707 8.90248 4.18971 10.8337 4.62247C11.0009 4.65995 11.1322 4.78936 11.1721 4.95603C11.212 5.1227 11.1535 5.29753 11.0213 5.40664L7.11299 8.63371C7.00601 8.72204 6.86421 8.75595 6.72885 8.72556L1.78481 7.61559C1.61762 7.57805 1.48639 7.44861 1.44655 7.28195C1.40672 7.11529 1.46524 6.9405 1.59739 6.83141L5.50462 3.60615Z" fill="#404040"/>
<path fill-rule="evenodd" clip-rule="evenodd" d="M11.6003 6.94315C11.7581 7.13436 11.7311 7.41729 11.5398 7.57509L7.63115 10.8007C7.52421 10.8889 7.3825 10.9228 7.24721 10.8925L2.30353 9.78398C2.06162 9.72973 1.90949 9.48966 1.96373 9.24775C2.01797 9.00584 2.25805 8.8537 2.49996 8.90795L7.22921 9.96838L10.9684 6.88264C11.1596 6.72484 11.4425 6.75193 11.6003 6.94315Z" fill="#404040"/>
<path fill-rule="evenodd" clip-rule="evenodd" d="M12.1297 9.1566C12.2875 9.34781 12.2604 9.63074 12.0692 9.78854L11.6783 10.1111C11.4871 10.2689 11.2042 10.2418 11.0464 10.0506C10.8886 9.85938 10.9157 9.57645 11.1069 9.41866L11.4978 9.09609C11.689 8.9383 11.9719 8.96539 12.1297 9.1566ZM2.49309 11.4612C2.54733 11.2193 2.78741 11.0672 3.02932 11.1214L3.52369 11.2323C3.7656 11.2865 3.91773 11.5266 3.86349 11.7685C3.80924 12.0104 3.56917 12.1625 3.32726 12.1083L2.83289 11.9974C2.59098 11.9432 2.43885 11.7031 2.49309 11.4612ZM10.5662 10.4468C10.724 10.6381 10.6969 10.921 10.5057 11.0788L9.72398 11.7239C9.53277 11.8817 9.24984 11.8546 9.09204 11.6634C8.93425 11.4722 8.96134 11.1893 9.15255 11.0315L9.93429 10.3863C10.1255 10.2285 10.4084 10.2556 10.5662 10.4468ZM4.47056 11.9046C4.52481 11.6627 4.76489 11.5106 5.00679 11.5648L5.99553 11.7865C6.23744 11.8408 6.38957 12.0808 6.33533 12.3227C6.28109 12.5646 6.04101 12.7168 5.7991 12.6625L4.81036 12.4408C4.56845 12.3866 4.41632 12.1465 4.47056 11.9046ZM8.61188 12.0597C8.76968 12.2509 8.74259 12.5338 8.55137 12.6916L8.16051 13.0141C8.05357 13.1024 7.91186 13.1363 7.77657 13.1059L7.28221 12.9951C7.0403 12.9408 6.88816 12.7008 6.94241 12.4589C6.99665 12.217 7.23673 12.0648 7.47864 12.1191L7.75857 12.1818L7.97994 11.9991C8.17116 11.8413 8.45408 11.8684 8.61188 12.0597Z" fill="#404040"/>
<path d="M5.79038 3.95233L1.88315 7.1776L6.82718 8.28757L10.7355 5.0605L5.79038 3.95233Z" fill="#404040"/>
<path d="M15.2935 3.56766L16.4064 8.2209L17.2617 7.0947C17.5074 6.77121 18.0556 7.0372 17.8099 7.36069L16.5084 9.07165C16.4068 9.20452 16.2032 9.25323 16.0525 9.18067L14.1183 8.24357C14.0431 8.2083 13.9911 8.14744 13.9745 8.07503C13.9175 7.83656 14.244 7.63477 14.4869 7.75833L15.7597 8.37774L14.6431 3.70872C14.5775 3.33615 15.2313 3.20879 15.2935 3.56766Z" fill="#404040"/>
</svg>
