<svg width="18" height="20" viewBox="0 0 18 20" fill="none" xmlns="http://www.w3.org/2000/svg">
<path fill-rule="evenodd" clip-rule="evenodd" d="M8.0057 0.268299C8.36344 -0.089433 8.94343 -0.089433 9.30117 0.268299L12.3271 3.29425C12.6849 3.65199 12.6849 4.23198 12.3271 4.58972C11.9694 4.94745 11.3894 4.94745 11.0317 4.58972L9.56947 3.12752V12.7908C9.56947 13.2967 9.15934 13.7069 8.65343 13.7069C8.14752 13.7069 7.7374 13.2967 7.7374 12.7908V3.12752L6.27521 4.58972C5.91748 4.94745 5.33748 4.94745 4.97975 4.58972C4.62202 4.23198 4.62202 3.65199 4.97975 3.29425L8.0057 0.268299ZM0 9.27634C0 7.3726 1.63915 5.93588 3.52061 5.93588H5.03511V7.76794H3.52061C2.52574 7.76794 1.83206 8.50527 1.83206 9.27634V16.6595C1.83206 17.4299 2.52501 18.1679 3.52366 18.1679H13.7863C14.7834 18.1679 15.4779 17.4316 15.4779 16.6595V9.27634C15.4779 8.50594 14.7849 7.76794 13.7863 7.76794H12.2718V5.93588H13.7863C15.6701 5.93588 17.3099 7.37192 17.3099 9.27634V16.6595C17.3099 18.5684 15.6655 20 13.7863 20H3.52366C1.63987 20 0 18.564 0 16.6595V9.27634Z" fill="#404040"/>
</svg>
