<svg width="22" height="22" viewBox="0 0 22 22" fill="none" xmlns="http://www.w3.org/2000/svg">
<path d="M11 2.65039C11.2089 2.65039 11.409 2.73317 11.5566 2.88086C11.7043 3.02854 11.7871 3.22864 11.7871 3.4375C11.7871 3.64636 11.7043 3.84646 11.5566 3.99414C11.409 4.14183 11.2089 4.22461 11 4.22461H4.22461V17.7754H17.7754V11C17.7754 10.7911 17.8582 10.591 18.0059 10.4434C18.1535 10.2957 18.3536 10.2129 18.5625 10.2129C18.7714 10.2129 18.9715 10.2957 19.1191 10.4434C19.2668 10.591 19.3496 10.7911 19.3496 11V18.5625C19.3496 18.7714 19.2668 18.9715 19.1191 19.1191C18.9715 19.2668 18.7714 19.3496 18.5625 19.3496H3.4375C3.22864 19.3496 3.02854 19.2668 2.88086 19.1191C2.73318 18.9715 2.65039 18.7714 2.65039 18.5625V3.4375C2.65039 3.22864 2.73317 3.02854 2.88086 2.88086C3.02854 2.73317 3.22864 2.65039 3.4375 2.65039H11Z" fill="#404040" stroke="#404040" stroke-width="0.2"/>
<path d="M17.7134 2.18018C18.235 2.18018 18.7351 2.37482 19.1216 2.72119V2.71143L19.2065 2.79736C19.4029 2.99354 19.5593 3.22652 19.6655 3.48291C19.7717 3.7392 19.8257 4.0141 19.8257 4.2915C19.8257 4.56895 19.7717 4.84378 19.6655 5.1001C19.5593 5.35649 19.4029 5.58946 19.2065 5.78564L12.0776 12.9146C11.965 13.0277 11.8187 13.1017 11.6606 13.1245L9.39111 13.4487C9.2778 13.465 9.16184 13.4546 9.05322 13.4185C8.94476 13.3823 8.84602 13.3215 8.76514 13.2407C8.68411 13.1597 8.62262 13.0604 8.58643 12.9517C8.5503 12.843 8.53988 12.7271 8.55615 12.6138L8.88135 10.3452C8.90372 10.1873 8.97675 10.0412 9.08936 9.92822L16.2202 2.79834C16.6163 2.40247 17.1533 2.18019 17.7134 2.18018ZM17.7163 3.646C17.6317 3.64673 17.548 3.66435 17.4702 3.69775C17.3925 3.73114 17.322 3.7795 17.2632 3.84033V3.84131L10.3042 10.7954L10.1538 11.8481L11.2065 11.6978L18.1646 4.74268V4.7417C18.2252 4.68305 18.2737 4.61316 18.3071 4.53564C18.3405 4.458 18.3581 4.37405 18.3589 4.28955C18.3596 4.20501 18.344 4.12074 18.312 4.04248C18.28 3.96413 18.2322 3.89238 18.1724 3.83252C18.1126 3.77285 18.0415 3.72585 17.9634 3.69385C17.885 3.66179 17.801 3.64526 17.7163 3.646Z" fill="#404040" stroke="#404040" stroke-width="0.1"/>
</svg>
