<svg width="30" height="30" viewBox="0 0 30 30" fill="none" xmlns="http://www.w3.org/2000/svg">
<circle opacity="0.2" cx="15" cy="15" r="15" fill="#F8F8F8"/>
<g opacity="0.7">
<path fill-rule="evenodd" clip-rule="evenodd" d="M20.2566 20.2566C19.8461 20.6672 19.1804 20.6672 18.7698 20.2566L9.74354 11.2302C9.33298 10.8196 9.33298 10.154 9.74354 9.74341C10.1541 9.33284 10.8198 9.33284 11.2303 9.74341L20.2566 18.7698C20.6672 19.1804 20.6672 19.846 20.2566 20.2566Z" fill="#F8F8F8"/>
<path fill-rule="evenodd" clip-rule="evenodd" d="M9.74338 20.2566C10.1539 20.6672 10.8196 20.6672 11.2302 20.2566L20.2565 11.2302C20.667 10.8196 20.667 10.154 20.2565 9.74341C19.8459 9.33284 19.1802 9.33284 18.7697 9.74341L9.74338 18.7698C9.33282 19.1804 9.33282 19.846 9.74338 20.2566Z" fill="#F8F8F8"/>
</g>
</svg>
