<svg width="12" height="12" viewBox="0 0 12 12" fill="none" xmlns="http://www.w3.org/2000/svg">
<g clip-path="url(#clip0_5812_364)">
<path d="M10.5024 0.00204494H6.17053C6.05808 -0.00108855 5.94625 -0.00108855 5.83442 0.00204494C3.72379 0.0609545 1.75601 1.22818 0.715102 3.15684C-0.507169 5.42078 -0.13817 8.23998 1.63353 10.1113C2.62525 11.1591 3.84095 11.7746 5.27403 11.9579C5.34388 11.967 5.42094 11.9525 5.48422 11.9999C5.82001 11.9999 6.15612 11.9999 6.49192 11.9999C6.56334 11.9528 6.6476 11.9685 6.72528 11.9585C8.20848 11.7677 9.45582 11.1203 10.4585 10.0142C11.3343 9.04811 11.828 7.90532 11.9733 6.61057C11.9796 6.55479 11.9567 6.49338 12 6.44324C12 6.35206 12 6.26087 12 6.16969V5.55208V1.50016C12 0.672925 11.3296 0.00204494 10.5024 0.00204494Z" fill="#EF5B5B"/>
<path d="M3.882 8.91751C3.93087 8.63111 3.97504 8.37072 4.01952 8.11033C4.10253 7.62276 4.18303 7.13487 4.27168 6.64824C4.2864 6.5674 4.25414 6.52666 4.20527 6.47935C3.69562 5.98394 3.18661 5.48791 2.67821 4.99157C2.64846 4.96243 2.61055 4.93892 2.59207 4.88315C2.82794 4.84837 3.06068 4.8139 3.29311 4.78006C3.82468 4.70203 4.35563 4.62276 4.88782 4.5488C4.95642 4.5394 4.96551 4.49115 4.98618 4.44947C5.30757 3.7999 5.6277 3.14939 5.94815 2.49919C5.96162 2.47162 5.97634 2.44436 5.99106 2.41553C6.03962 2.42963 6.04306 2.47412 6.05872 2.50546C6.38074 3.15472 6.70212 3.8046 7.02163 4.45511C7.0492 4.51152 7.07801 4.54254 7.14755 4.55225C7.83763 4.64876 8.52707 4.75123 9.21652 4.85213C9.28073 4.86153 9.34464 4.87312 9.41355 4.8844C9.28481 5.01726 9.16421 5.1473 9.03797 5.2717C8.62261 5.67905 8.20631 6.08547 7.78751 6.48937C7.73582 6.5392 7.72204 6.58714 7.73363 6.65357C7.85548 7.35578 7.97577 8.05831 8.09605 8.76052C8.10388 8.80596 8.10858 8.85171 8.11767 8.9172C7.95572 8.83259 7.81132 8.7577 7.66722 8.68187C7.14661 8.40801 6.62475 8.13571 6.10634 7.85777C6.02677 7.81515 5.96882 7.82079 5.89239 7.86153C5.26998 8.19336 4.64506 8.52081 4.02077 8.8492C3.98287 8.86894 3.94465 8.8868 3.882 8.91751Z" fill="#FFFEFD"/>
</g>
<defs>
<clipPath id="clip0_5812_364">
<rect width="12" height="12" fill="white"/>
</clipPath>
</defs>
</svg>
