<svg width="50" height="50" viewBox="0 0 50 50" fill="none" xmlns="http://www.w3.org/2000/svg">
<path d="M25 50C38.8071 50 50 38.8071 50 25C50 11.1929 38.8071 0 25 0C11.1929 0 0 11.1929 0 25C0 38.8071 11.1929 50 25 50Z" fill="white"/>
<path fill-rule="evenodd" clip-rule="evenodd" d="M25.1494 18C25.5812 18 25.9313 18.3501 25.9313 18.782V31.218C25.9313 31.6499 25.5812 32 25.1494 32C24.7175 32 24.3674 31.6499 24.3674 31.218V18.782C24.3674 18.3501 24.7175 18 25.1494 18Z" fill="#404040"/>
<path fill-rule="evenodd" clip-rule="evenodd" d="M18 25C18 24.5681 18.3501 24.218 18.782 24.218H31.218C31.6499 24.218 32 24.5681 32 25C32 25.4319 31.6499 25.782 31.218 25.782H18.782C18.3501 25.782 18 25.4319 18 25Z" fill="#404040"/>
</svg>
